<?xml version="1.0" encoding="UTF-8"?>
<svg id="Capa_1" data-name="Capa 1" xmlns="http://www.w3.org/2000/svg" viewBox="0 0 1080 1080">
  <defs>
    <style>
      .cls-1 {
        fill: #c08918;
      }

      .cls-2 {
        fill: none;
        stroke: #c08918;
        stroke-linecap: round;
        stroke-linejoin: round;
        stroke-width: 47px;
      }
    </style>
  </defs>
  <path class="cls-1" d="M250.24,981.13c-39.34-117.56-129.39-199.01-174.57-296.32-42.45-91.42-50.23-191.75,1.34-278.79,43.49-73.4,132.95-107.03,209.71-68.87,63.58,31.61,94.24,92,112.96,164.94,52.05-65.35,110.99-115.69,190.24-118.92,53.76-2.19,104.44,14.97,141.08,56.31,78.96,89.09,32.28,246.7-80.45,335.01-95.99,75.19-220.79,112.66-345.24,220.85-9.24,8.04-19.22,11.96-28.48,10.3-11.5-2.06-22.16-11.21-26.61-24.49ZM288.55,936.91c57.67-44.91,112.56-79.5,175.12-112.21,124.16-64.92,268.65-145.87,249.45-296.96-5.12-40.33-34.82-70.41-64.16-81.95-98.19-38.63-195.64,47.12-243.54,148.97-6.88,14.63-14.75,24.26-28.84,21.59-12.51-2.38-23.95-11.94-22.91-28.19,6.95-108.75-57.24-221.18-142.16-212.82-99.31,9.78-144.06,139.26-98.09,258.06,41.39,106.95,133.39,187.33,175.12,303.51Z"/>
  <g>
    <line class="cls-2" x1="296.38" y1="115" x2="325.7" y2="199.81"/>
    <line class="cls-2" x1="599.52" y1="132.07" x2="572.91" y2="222.1"/>
    <line class="cls-2" x1="824.93" y1="320.15" x2="891.17" y2="230.96"/>
    <line class="cls-2" x1="927.64" y1="555.35" x2="1027.14" y2="537.63"/>
    <line class="cls-2" x1="826.63" y1="817.37" x2="931.74" y2="866.57"/>
  </g>
</svg>