<?xml version="1.0" encoding="UTF-8"?>
<svg id="Capa_1" data-name="Capa 1" xmlns="http://www.w3.org/2000/svg" viewBox="0 0 1080 1080">
  <defs>
    <style>
      .cls-1 {
        fill: #c08918;
      }
    </style>
  </defs>
  <path class="cls-1" d="M796.03,863.26c-62.56,2.67-99.89,25.48-135.16,72.64-51.48,68.82-148.73,95.61-217.68,37.31-53.7-45.4-66.71-124.86-44.46-189.59,19.65-57.16,24.86-109.37,23.14-169.3-1.89-65.97,32.58-122.65,96.17-151.66,47.59-21.71,123.73-11.93,171.05,31,41.3,37.47,78.86,61.94,133.83,74.82,91.06,21.34,153.06,118.97,116.22,208.15-22.13,53.57-85.19,84.16-143.13,86.63ZM878.14,766.46c34.6-56.45-8.82-120.27-66.37-139.69-61.99-20.91-113.57-45.7-163.56-89.01-39.41-34.15-106.21-38.41-143.18,1.58-46.29,50.07-6.86,133.03-50.95,261.36-13.35,38.86-7.4,91.49,23.25,121.04,43.57,42,107.87,19.4,140.99-25.6,100.62-136.73,218.92-62.94,259.82-129.68Z"/>
  <path class="cls-1" d="M401.1,265.6c45.15,81.98,74.71,175.94,7.53,220.67-25,16.65-58.19,17-92.23,1.7-91.26-41.05-147.14-144.97-135.28-245.87,4.75-40.43,42.68-75.66,80.63-74.6,63.44,1.77,110.39,45.53,139.34,98.1ZM289.67,232.34c-13.72-8.28-44.41-13.01-48.34,7.65-20.3,106.8,76.77,213.24,128.4,199.32,45.85-12.36,12.5-151.15-80.06-206.97Z"/>
  <path class="cls-1" d="M561.18,79.59c118.05,75.63,145.26,265.71,51.44,314.36-21.46,11.13-57.59,15.55-84.93-5.57-117.87-91.08-136.28-279.26-51.94-316.92,24.41-10.9,57.46-9.8,85.43,8.12ZM506.52,126.33c-72.43,19.41,16.14,241.4,80.26,212.86,68.88-30.66-12.75-230.95-80.26-212.86Z"/>
  <path class="cls-1" d="M206.29,470.68c149.74,44.46,202.9,217.48,137.14,272.68-21.96,18.44-54.58,25.91-87.13,16.98-127.77-35.07-197.44-204.83-126.82-271.68,17.42-16.49,48.49-26.38,76.8-17.98ZM167.8,534.91c-4.81,4.68-10.43,16.17-9.46,26.82,9.25,101.85,110.64,166.57,146.08,135.23,52.22-46.19-90.35-207.04-136.62-162.05Z"/>
  <path class="cls-1" d="M926.96,437.42c-9.85,45.12-41.06,77.33-77.63,81.42-40.2,4.51-75.46-10.1-102.75-48.91-46.98-66.82-56.93-167.85-9.85-238.79,32.55-49.05,103.06-37.54,139.2,4.08,47.46,54.64,66.83,129.84,51.03,202.19ZM793.93,262.14c-9.94,2.83-20.71,12.82-24.49,27.84-24.38,96.92,29.66,190.49,79.46,165.82,64.79-32.11,4.51-210.62-54.97-193.66Z"/>
</svg>